<?xml version="1.0" encoding="utf-8"?>
<!-- Generator: Adobe Illustrator 26.0.1, SVG Export Plug-In . SVG Version: 6.00 Build 0)  -->
<svg version="1.1" id="Capa_1" xmlns="http://www.w3.org/2000/svg" xmlns:xlink="http://www.w3.org/1999/xlink" x="0px" y="0px"
	 viewBox="0 0 283.46 113.39" style="enable-background:new 0 0 283.46 113.39;" xml:space="preserve">
<style type="text/css">
	.st0{fill:#FFFFFF;}
</style>
<g>
	<g>
		<path class="st0" d="M123.63,41.5h2.52v10.83h3.67v2.4h-6.19V41.5z"/>
		<path class="st0" d="M133.76,39.63h2.9l-3.29,3.53h-1.76L133.76,39.63z M132.12,44.94h2.46v9.78h-2.46V44.94z"/>
		<path class="st0" d="M144.95,41.17h2.46v13.56h-2.46v-1.03c-0.48,0.46-0.96,0.78-1.44,0.98c-0.48,0.2-1,0.3-1.57,0.3
			c-1.26,0-2.36-0.49-3.28-1.47c-0.92-0.98-1.38-2.2-1.38-3.66c0-1.51,0.45-2.75,1.34-3.71c0.89-0.97,1.98-1.45,3.25-1.45
			c0.59,0,1.14,0.11,1.65,0.33c0.52,0.22,0.99,0.55,1.43,1V41.17z M142.37,46.96c-0.76,0-1.39,0.27-1.89,0.8
			c-0.5,0.54-0.75,1.22-0.75,2.06c0,0.85,0.26,1.54,0.77,2.09c0.51,0.55,1.14,0.82,1.89,0.82c0.77,0,1.41-0.27,1.92-0.8
			c0.51-0.54,0.76-1.24,0.76-2.11c0-0.85-0.25-1.54-0.76-2.07C143.78,47.22,143.14,46.96,142.37,46.96z"/>
		<path class="st0" d="M160.61,50.55h-7.89c0.11,0.7,0.42,1.25,0.91,1.66c0.49,0.41,1.13,0.62,1.89,0.62c0.92,0,1.71-0.32,2.37-0.96
			l2.07,0.97c-0.52,0.73-1.13,1.27-1.85,1.62c-0.72,0.35-1.57,0.53-2.56,0.53c-1.53,0-2.79-0.48-3.75-1.45
			c-0.97-0.97-1.45-2.18-1.45-3.64c0-1.49,0.48-2.73,1.44-3.72s2.17-1.48,3.62-1.48c1.54,0,2.79,0.49,3.76,1.48
			c0.97,0.99,1.45,2.29,1.45,3.91L160.61,50.55z M158.15,48.61c-0.16-0.55-0.48-0.99-0.96-1.33c-0.48-0.34-1.03-0.51-1.66-0.51
			c-0.68,0-1.29,0.19-1.8,0.58c-0.32,0.24-0.62,0.66-0.9,1.27H158.15z"/>
		<path class="st0" d="M162.94,44.94h2.1v1.23c0.23-0.49,0.53-0.85,0.91-1.11c0.38-0.25,0.79-0.38,1.24-0.38
			c0.32,0,0.65,0.08,1,0.25l-0.76,2.11c-0.29-0.14-0.52-0.22-0.71-0.22c-0.38,0-0.7,0.23-0.96,0.7c-0.26,0.47-0.39,1.39-0.39,2.75
			l0.01,0.48v3.96h-2.44V44.94z"/>
		<path class="st0" d="M188.83,43.82l-1.76,1.68c-1.2-1.27-2.55-1.9-4.04-1.9c-1.26,0-2.33,0.43-3.19,1.3
			c-0.87,0.86-1.3,1.93-1.3,3.2c0,0.88,0.19,1.67,0.58,2.35c0.38,0.68,0.93,1.22,1.63,1.61c0.7,0.39,1.48,0.59,2.34,0.59
			c0.73,0,1.4-0.14,2-0.41c0.61-0.27,1.27-0.77,2-1.49l1.71,1.78c-0.98,0.95-1.9,1.61-2.77,1.98c-0.87,0.37-1.86,0.55-2.98,0.55
			c-2.06,0-3.74-0.65-5.05-1.96c-1.31-1.3-1.97-2.98-1.97-5.01c0-1.32,0.3-2.49,0.89-3.52c0.6-1.03,1.45-1.85,2.56-2.47
			c1.11-0.62,2.31-0.94,3.59-0.94c1.09,0,2.14,0.23,3.15,0.69C187.23,42.32,188.1,42.97,188.83,43.82z"/>
		<path class="st0" d="M196.28,44.69c0.92,0,1.79,0.23,2.6,0.69c0.81,0.46,1.45,1.09,1.9,1.88c0.46,0.79,0.68,1.65,0.68,2.56
			c0,0.92-0.23,1.79-0.69,2.59c-0.46,0.8-1.08,1.43-1.88,1.88c-0.79,0.45-1.66,0.68-2.62,0.68c-1.4,0-2.6-0.5-3.59-1.5
			c-0.99-1-1.49-2.21-1.49-3.64c0-1.53,0.56-2.8,1.68-3.82C193.87,45.13,195,44.69,196.28,44.69z M196.32,47
			c-0.76,0-1.4,0.27-1.91,0.8c-0.51,0.53-0.76,1.21-0.76,2.04c0,0.85,0.25,1.54,0.75,2.07c0.5,0.53,1.14,0.79,1.91,0.79
			c0.77,0,1.41-0.27,1.92-0.8c0.51-0.53,0.77-1.22,0.77-2.06c0-0.84-0.25-1.52-0.75-2.05C197.74,47.26,197.1,47,196.32,47z"/>
		<path class="st0" d="M211.62,44.94h2.46v9.78h-2.46v-1.03c-0.48,0.46-0.96,0.78-1.44,0.98c-0.48,0.2-1,0.3-1.57,0.3
			c-1.26,0-2.36-0.49-3.28-1.47c-0.92-0.98-1.38-2.2-1.38-3.66c0-1.51,0.45-2.75,1.34-3.71c0.89-0.97,1.98-1.45,3.25-1.45
			c0.59,0,1.14,0.11,1.65,0.33c0.51,0.22,0.99,0.55,1.43,1V44.94z M209.04,46.96c-0.76,0-1.39,0.27-1.89,0.8
			c-0.5,0.54-0.75,1.22-0.75,2.06c0,0.85,0.26,1.54,0.77,2.09c0.51,0.55,1.14,0.82,1.89,0.82c0.77,0,1.41-0.27,1.92-0.8
			c0.51-0.54,0.76-1.24,0.76-2.11c0-0.85-0.25-1.54-0.76-2.07C210.46,47.22,209.82,46.96,209.04,46.96z"/>
		<path class="st0" d="M227.06,46.92l-2.04,1.12c-0.38-0.4-0.76-0.68-1.14-0.84c-0.38-0.16-0.82-0.23-1.32-0.23
			c-0.92,0-1.66,0.27-2.23,0.82c-0.57,0.55-0.85,1.25-0.85,2.11c0,0.83,0.27,1.51,0.82,2.04c0.55,0.53,1.26,0.79,2.15,0.79
			c1.1,0,1.95-0.37,2.57-1.12l1.94,1.33c-1.05,1.36-2.53,2.05-4.44,2.05c-1.72,0-3.07-0.51-4.04-1.53
			c-0.97-1.02-1.46-2.21-1.46-3.58c0-0.95,0.24-1.82,0.71-2.62c0.47-0.8,1.13-1.42,1.98-1.88c0.85-0.46,1.8-0.68,2.85-0.68
			c0.97,0,1.84,0.19,2.62,0.58C225.93,45.66,226.56,46.21,227.06,46.92z"/>
		<path class="st0" d="M230.2,41.17h2.44v4.77c0.48-0.41,0.96-0.72,1.45-0.93c0.49-0.21,0.98-0.31,1.47-0.31
			c0.97,0,1.79,0.34,2.46,1.01c0.57,0.58,0.85,1.44,0.85,2.56v6.47h-2.42v-4.29c0-1.13-0.05-1.9-0.16-2.3
			c-0.11-0.4-0.29-0.7-0.55-0.9c-0.26-0.2-0.58-0.3-0.97-0.3c-0.5,0-0.93,0.16-1.28,0.49c-0.36,0.33-0.6,0.78-0.74,1.35
			c-0.07,0.29-0.11,0.97-0.11,2.01v3.93h-2.44V41.17z"/>
		<path class="st0" d="M124.43,62.33h2.26c1.3,0,2.17,0.06,2.62,0.17c0.65,0.16,1.18,0.49,1.59,0.98c0.41,0.5,0.62,1.12,0.62,1.87
			c0,0.76-0.2,1.38-0.6,1.87c-0.4,0.49-0.95,0.82-1.66,0.99c-0.51,0.12-1.48,0.19-2.88,0.19h-0.81v5.27h-1.13V62.33z M125.57,63.44
			v3.85l1.92,0.02c0.78,0,1.34-0.07,1.7-0.21c0.36-0.14,0.64-0.37,0.85-0.68c0.21-0.32,0.31-0.67,0.31-1.06
			c0-0.38-0.1-0.73-0.31-1.04c-0.21-0.32-0.48-0.54-0.81-0.67c-0.34-0.13-0.89-0.2-1.65-0.2H125.57z"/>
		<path class="st0" d="M136.51,65.29h1.1v1.23c0.33-0.48,0.68-0.84,1.04-1.08c0.36-0.24,0.75-0.36,1.14-0.36
			c0.3,0,0.62,0.1,0.96,0.29l-0.56,0.91c-0.23-0.1-0.42-0.15-0.57-0.15c-0.36,0-0.71,0.15-1.04,0.44c-0.33,0.3-0.59,0.75-0.76,1.38
			c-0.13,0.48-0.2,1.44-0.2,2.9v2.84h-1.1V65.29z"/>
		<path class="st0" d="M148.96,65.07c1.29,0,2.36,0.47,3.21,1.4c0.77,0.85,1.16,1.86,1.16,3.03c0,1.17-0.41,2.2-1.22,3.07
			c-0.82,0.88-1.87,1.31-3.15,1.31c-1.29,0-2.34-0.44-3.15-1.31c-0.82-0.88-1.22-1.9-1.22-3.07c0-1.16,0.39-2.17,1.16-3.02
			C146.59,65.54,147.66,65.07,148.96,65.07z M148.95,66.13c-0.9,0-1.67,0.33-2.31,0.99c-0.64,0.66-0.97,1.46-0.97,2.41
			c0,0.61,0.15,1.17,0.44,1.7s0.69,0.93,1.19,1.21c0.5,0.29,1.05,0.43,1.65,0.43c0.6,0,1.15-0.14,1.65-0.43
			c0.5-0.29,0.9-0.69,1.19-1.21c0.29-0.52,0.44-1.09,0.44-1.7c0-0.94-0.32-1.74-0.97-2.41C150.62,66.46,149.85,66.13,148.95,66.13z"
			/>
		<path class="st0" d="M162.09,62.05v1.06c-0.4-0.17-0.74-0.25-1.02-0.25c-0.21,0-0.39,0.04-0.52,0.13s-0.23,0.18-0.26,0.29
			c-0.04,0.11-0.05,0.4-0.05,0.88l0,1.13h1.75v0.93h-1.75l-0.01,7.45h-1.08v-7.45h-1.1v-0.93h1.1v-1.31c0-0.6,0.06-1.03,0.17-1.29
			c0.11-0.26,0.3-0.46,0.56-0.62c0.26-0.16,0.58-0.24,0.96-0.24C161.19,61.83,161.6,61.9,162.09,62.05z"/>
		<path class="st0" d="M173.97,70.89l0.91,0.48c-0.3,0.59-0.64,1.06-1.03,1.42c-0.39,0.36-0.83,0.63-1.32,0.82
			c-0.49,0.19-1.04,0.28-1.66,0.28c-1.37,0-2.44-0.45-3.21-1.35c-0.77-0.9-1.16-1.91-1.16-3.04c0-1.06,0.33-2.01,0.98-2.84
			c0.83-1.06,1.94-1.59,3.33-1.59c1.43,0,2.57,0.54,3.43,1.63c0.61,0.77,0.92,1.72,0.93,2.87h-7.55c0.02,0.97,0.33,1.77,0.93,2.4
			c0.6,0.62,1.35,0.93,2.23,0.93c0.43,0,0.84-0.07,1.25-0.22c0.4-0.15,0.75-0.35,1.03-0.59C173.34,71.83,173.64,71.44,173.97,70.89z
			 M173.97,68.63c-0.14-0.58-0.35-1.04-0.63-1.38c-0.28-0.34-0.64-0.62-1.09-0.83c-0.45-0.21-0.93-0.32-1.43-0.32
			c-0.82,0-1.53,0.26-2.12,0.79c-0.43,0.39-0.76,0.96-0.98,1.73H173.97z"/>
		<path class="st0" d="M184.7,66.2l-0.69,0.72c-0.58-0.56-1.14-0.84-1.69-0.84c-0.35,0-0.65,0.12-0.9,0.35
			c-0.25,0.23-0.38,0.5-0.38,0.81c0,0.27,0.1,0.53,0.31,0.78c0.21,0.25,0.64,0.55,1.3,0.89c0.8,0.42,1.35,0.82,1.64,1.2
			c0.28,0.39,0.42,0.83,0.42,1.32c0,0.69-0.24,1.27-0.73,1.75s-1.09,0.72-1.81,0.72c-0.48,0-0.95-0.11-1.39-0.32
			c-0.44-0.21-0.8-0.5-1.09-0.87l0.68-0.77c0.55,0.62,1.14,0.93,1.75,0.93c0.43,0,0.8-0.14,1.1-0.42c0.3-0.28,0.46-0.6,0.46-0.98
			c0-0.31-0.1-0.58-0.3-0.82c-0.2-0.24-0.65-0.53-1.36-0.89c-0.76-0.39-1.27-0.78-1.55-1.16c-0.27-0.38-0.41-0.81-0.41-1.3
			c0-0.64,0.22-1.17,0.65-1.59s0.98-0.63,1.65-0.63C183.14,65.07,183.92,65.45,184.7,66.2z"/>
		<path class="st0" d="M190.31,61.83c0.25,0,0.46,0.09,0.63,0.26c0.17,0.17,0.26,0.39,0.26,0.63c0,0.24-0.09,0.45-0.26,0.62
			c-0.17,0.17-0.38,0.26-0.63,0.26c-0.24,0-0.45-0.09-0.62-0.26c-0.17-0.17-0.26-0.38-0.26-0.62c0-0.25,0.09-0.46,0.26-0.63
			C189.86,61.92,190.06,61.83,190.31,61.83z M189.77,65.29h1.08v8.39h-1.08V65.29z"/>
		<path class="st0" d="M200.38,65.07c1.29,0,2.36,0.47,3.21,1.4c0.77,0.85,1.16,1.86,1.16,3.03c0,1.17-0.41,2.2-1.22,3.07
			s-1.87,1.31-3.15,1.31c-1.29,0-2.34-0.44-3.15-1.31c-0.82-0.88-1.22-1.9-1.22-3.07c0-1.16,0.39-2.17,1.16-3.02
			C198.01,65.54,199.08,65.07,200.38,65.07z M200.37,66.13c-0.9,0-1.67,0.33-2.31,0.99c-0.64,0.66-0.97,1.46-0.97,2.41
			c0,0.61,0.15,1.17,0.44,1.7s0.69,0.93,1.19,1.21c0.5,0.29,1.05,0.43,1.65,0.43c0.6,0,1.15-0.14,1.65-0.43
			c0.5-0.29,0.9-0.69,1.19-1.21c0.29-0.52,0.44-1.09,0.44-1.7c0-0.94-0.32-1.74-0.97-2.41C202.04,66.46,201.27,66.13,200.37,66.13z"
			/>
		<path class="st0" d="M210.06,65.29h1.08v1.5c0.43-0.58,0.91-1.01,1.43-1.29c0.52-0.29,1.09-0.43,1.71-0.43
			c0.63,0,1.18,0.16,1.67,0.48c0.49,0.32,0.84,0.75,1.08,1.29s0.35,1.38,0.35,2.52v4.32h-1.08v-4c0-0.97-0.04-1.61-0.12-1.93
			c-0.12-0.56-0.36-0.97-0.72-1.25c-0.35-0.28-0.82-0.42-1.39-0.42c-0.65,0-1.24,0.22-1.75,0.65c-0.52,0.43-0.86,0.97-1.02,1.6
			c-0.1,0.42-0.15,1.18-0.15,2.28v3.08h-1.08V65.29z"/>
		<path class="st0" d="M231.36,65.29v8.39h-1.06v-1.44c-0.45,0.55-0.96,0.96-1.52,1.24c-0.56,0.28-1.18,0.42-1.85,0.42
			c-1.19,0-2.2-0.43-3.04-1.29s-1.26-1.91-1.26-3.14c0-1.21,0.42-2.24,1.27-3.1s1.87-1.29,3.06-1.29c0.69,0,1.31,0.15,1.87,0.44
			s1.05,0.73,1.47,1.32v-1.54H231.36z M227.05,66.11c-0.6,0-1.16,0.15-1.66,0.44c-0.51,0.3-0.91,0.71-1.21,1.24
			c-0.3,0.53-0.45,1.1-0.45,1.69c0,0.59,0.15,1.16,0.45,1.69c0.3,0.54,0.71,0.96,1.22,1.26s1.06,0.45,1.64,0.45
			c0.59,0,1.15-0.15,1.68-0.45c0.53-0.3,0.94-0.7,1.22-1.21c0.28-0.51,0.43-1.08,0.43-1.72c0-0.97-0.32-1.78-0.96-2.43
			S227.98,66.11,227.05,66.11z"/>
		<path class="st0" d="M236.94,62.05h1.08v11.62h-1.08V62.05z"/>
	</g>
	<polygon class="st0" points="126.89,11.3 95.54,38.73 87.7,70.08 82.54,32.14 	"/>
	<polygon class="st0" points="44.6,1.83 79.87,33.18 83.78,111.56 64.19,41.02 	"/>
	<circle class="st0" cx="81.95" cy="15.3" r="9.4"/>
</g>
</svg>
