<svg xmlns="http://www.w3.org/2000/svg" viewBox="0 0 295.95 85.81"><defs><style>.cls-1{fill:#543688;}.cls-2{fill:#575656;}</style></defs><title>writte_logo</title><g id="Capa_2" data-name="Capa 2"><g id="Capa_1-2" data-name="Capa 1"><path class="cls-1" d="M0,39.35v-35H8.1v28.4H25.65v6.6Z"/><path class="cls-1" d="M33.55,8.7a5,5,0,0,1-3.5-1.25,4.05,4.05,0,0,1-1.35-3.1,4.05,4.05,0,0,1,1.35-3.1A5,5,0,0,1,33.55,0a5.11,5.11,0,0,1,3.5,1.18,3.82,3.82,0,0,1,1.35,3,4.28,4.28,0,0,1-1.33,3.23A4.89,4.89,0,0,1,33.55,8.7Zm-3.9,30.65V12.45h7.8v26.9Z"/><path class="cls-1" d="M56.25,39.75A13.57,13.57,0,0,1,49.4,38a12.63,12.63,0,0,1-4.83-4.82,14.48,14.48,0,0,1-1.77-7.3,14.6,14.6,0,0,1,1.77-7.35,12.51,12.51,0,0,1,4.83-4.8,13.86,13.86,0,0,1,6.85-1.7,11.51,11.51,0,0,1,6,1.5,9.85,9.85,0,0,1,4,4.55,18.8,18.8,0,0,1,1.4,7.8,19.46,19.46,0,0,1-1.35,7.78,9.57,9.57,0,0,1-3.88,4.57A11.65,11.65,0,0,1,56.25,39.75Zm1.35-6.4a6.73,6.73,0,0,0,3.45-.9,6.58,6.58,0,0,0,2.47-2.57,8.1,8.1,0,0,0,.93-4,8,8,0,0,0-.93-4,6.59,6.59,0,0,0-2.47-2.55,6.73,6.73,0,0,0-3.45-.9,6.83,6.83,0,0,0-3.5.9,6.68,6.68,0,0,0-2.48,2.55,8.13,8.13,0,0,0-.92,4,8.21,8.21,0,0,0,.92,4,6.67,6.67,0,0,0,2.48,2.57A6.83,6.83,0,0,0,57.6,33.35Zm7.05,6v-5.5l.15-8-.5-8V2.25h7.8v37.1Z"/><path class="cls-1" d="M92.65,39.75A17.34,17.34,0,0,1,84.57,38,13.22,13.22,0,0,1,79.2,33a13.38,13.38,0,0,1-1.9-7.12,13.64,13.64,0,0,1,1.87-7.17,13.21,13.21,0,0,1,5.13-4.9,16,16,0,0,1,14.47-.1,12.53,12.53,0,0,1,5,4.79A14.48,14.48,0,0,1,105.65,26c0,.3,0,.64-.05,1s-.07.75-.1,1.08H83.65V23.55H101.4l-3,1.35a7.54,7.54,0,0,0-.85-3.65,6.21,6.21,0,0,0-2.35-2.42A6.77,6.77,0,0,0,91.7,18a6.9,6.9,0,0,0-3.53.88,6.12,6.12,0,0,0-2.37,2.44A7.75,7.75,0,0,0,85,25v1.2a7.58,7.58,0,0,0,1,3.88,6.46,6.46,0,0,0,2.75,2.55,9.43,9.43,0,0,0,4.18.87,10.16,10.16,0,0,0,3.77-.65,9,9,0,0,0,3-2l4.15,4.5a12.2,12.2,0,0,1-4.65,3.23A17.23,17.23,0,0,1,92.65,39.75Z"/><path class="cls-1" d="M110.85,39.35V12.45h7.45v7.6l-1-2.2a8.67,8.67,0,0,1,3.85-4.33,13.09,13.09,0,0,1,6.45-1.47v7.2c-.34,0-.64-.06-.9-.07s-.55,0-.85,0A7.32,7.32,0,0,0,120.62,21q-2,1.82-2,5.67v12.7Z"/><path class="cls-1" d="M159.55,39.75A16.52,16.52,0,0,1,151.8,38a13.22,13.22,0,0,1-7.25-12.08,13.13,13.13,0,0,1,7.25-12.07,16.4,16.4,0,0,1,7.75-1.78,14.77,14.77,0,0,1,7.4,1.78,10.8,10.8,0,0,1,4.65,5.07l-6,3.25a7,7,0,0,0-2.63-2.8,6.78,6.78,0,0,0-3.42-.9,7.18,7.18,0,0,0-3.6.9,6.53,6.53,0,0,0-2.53,2.55,8,8,0,0,0-.92,4,8,8,0,0,0,.92,4,6.53,6.53,0,0,0,2.53,2.55,7.18,7.18,0,0,0,3.6.9,7,7,0,0,0,3.42-.87,6.85,6.85,0,0,0,2.63-2.83l6,3.3A10.89,10.89,0,0,1,167,38,14.87,14.87,0,0,1,159.55,39.75Z"/><path class="cls-1" d="M188.55,39.75a15.78,15.78,0,0,1-7.63-1.8A13.62,13.62,0,0,1,175.67,33a13.3,13.3,0,0,1-1.92-7.12,13.25,13.25,0,0,1,7.17-12.07,17.18,17.18,0,0,1,15.23,0,13.34,13.34,0,0,1,5.25,4.87,13.58,13.58,0,0,1,1.9,7.2A13.27,13.27,0,0,1,196.15,38,15.83,15.83,0,0,1,188.55,39.75Zm0-6.4a6.86,6.86,0,0,0,3.5-.9,6.46,6.46,0,0,0,2.45-2.57,8.32,8.32,0,0,0,.9-4,8.24,8.24,0,0,0-.9-4,6.47,6.47,0,0,0-2.45-2.55,7.26,7.26,0,0,0-7,0,6.61,6.61,0,0,0-2.48,2.55,8,8,0,0,0-.92,4,8.1,8.1,0,0,0,.92,4,6.6,6.6,0,0,0,2.48,2.57A6.83,6.83,0,0,0,188.55,33.35Z"/><path class="cls-1" d="M216.35,39.75a12.53,12.53,0,0,1-5.4-1.07,8.26,8.26,0,0,1-3.45-2.93,7.95,7.95,0,0,1,0-8.35,7.71,7.71,0,0,1,3.73-2.82,17.92,17.92,0,0,1,6.65-1H225V28.1h-6.3c-1.84,0-3.09.3-3.78.9a2.88,2.88,0,0,0-1,2.25,2.83,2.83,0,0,0,1.17,2.38,5.34,5.34,0,0,0,3.23.87,6.77,6.77,0,0,0,3.5-.92,5.36,5.36,0,0,0,2.25-2.73l1.2,3.6a7,7,0,0,1-3.1,3.95A11.16,11.16,0,0,1,216.35,39.75Zm8.2-.4V34.1l-.5-1.15v-9.4a5,5,0,0,0-1.53-3.9,6.72,6.72,0,0,0-4.67-1.4,13.61,13.61,0,0,0-4.23.68,11,11,0,0,0-3.52,1.82l-2.8-5.45a16.91,16.91,0,0,1,5.3-2.4,23.51,23.51,0,0,1,6.3-.85q6.15,0,9.55,2.9t3.4,9.05V39.35Z"/><path class="cls-1" d="M252.1,39.75A16.52,16.52,0,0,1,244.35,38,13.22,13.22,0,0,1,237.1,25.9a13.13,13.13,0,0,1,7.25-12.07,16.4,16.4,0,0,1,7.75-1.78,14.77,14.77,0,0,1,7.4,1.78,10.8,10.8,0,0,1,4.65,5.07l-6,3.25a7,7,0,0,0-2.63-2.8,6.78,6.78,0,0,0-3.42-.9,7.18,7.18,0,0,0-3.6.9,6.53,6.53,0,0,0-2.53,2.55,8,8,0,0,0-.92,4,8,8,0,0,0,.92,4,6.53,6.53,0,0,0,2.53,2.55,7.18,7.18,0,0,0,3.6.9,7,7,0,0,0,3.42-.87,6.85,6.85,0,0,0,2.63-2.83l6,3.3a10.89,10.89,0,0,1-4.65,5A14.87,14.87,0,0,1,252.1,39.75Z"/><path class="cls-1" d="M284.8,12.05a12.51,12.51,0,0,1,5.72,1.28,9.29,9.29,0,0,1,4,3.9A13.88,13.88,0,0,1,296,24v15.4h-7.8V25.15a6.9,6.9,0,0,0-1.43-4.8,5.2,5.2,0,0,0-4-1.55,7,7,0,0,0-3.33.78,5.33,5.33,0,0,0-2.3,2.37,8.93,8.93,0,0,0-.82,4.1v13.3h-7.8V2.25h7.8V19.9l-1.75-2.25a9.94,9.94,0,0,1,4.15-4.15A12.76,12.76,0,0,1,284.8,12.05Z"/><path class="cls-2" d="M35,62a9.87,9.87,0,0,1,3.69-3.81,10.16,10.16,0,0,1,5.22-1.36,10.68,10.68,0,0,1,6,1.66,9.54,9.54,0,0,1,3.65,4.7H51.12a7.22,7.22,0,0,0-2.75-3.33,8,8,0,0,0-4.45-1.2,8.09,8.09,0,0,0-4.16,1.08,7.38,7.38,0,0,0-2.89,3.11,11,11,0,0,0,0,9.37,7.45,7.45,0,0,0,2.89,3.09,8.74,8.74,0,0,0,8.61-.11A7.15,7.15,0,0,0,51.12,72h2.46a9.41,9.41,0,0,1-3.66,4.65,10.71,10.71,0,0,1-6,1.65,10.17,10.17,0,0,1-5.22-1.37A9.75,9.75,0,0,1,35,73.09a11.17,11.17,0,0,1-1.35-5.52A11.3,11.3,0,0,1,35,62Z"/><path class="cls-2" d="M57.79,65.42a7.2,7.2,0,0,1,2.79-2.94,7.91,7.91,0,0,1,4-1,7.33,7.33,0,0,1,4,1.08,6.3,6.3,0,0,1,2.45,2.76v-3.6h2.1V78.07H71.1V74.44a6.65,6.65,0,0,1-2.48,2.77,7.18,7.18,0,0,1-4,1.1,7.74,7.74,0,0,1-4-1,7.28,7.28,0,0,1-2.79-3,10.33,10.33,0,0,1,0-8.87Zm12.5,1a5.79,5.79,0,0,0-2.21-2.31A6,6,0,0,0,65,63.28a6.2,6.2,0,0,0-3.12.78,5.47,5.47,0,0,0-2.18,2.26,7.39,7.39,0,0,0-.79,3.53,7.5,7.5,0,0,0,.79,3.53,5.6,5.6,0,0,0,2.18,2.31,6.21,6.21,0,0,0,3.12.79,6,6,0,0,0,3.07-.81,5.79,5.79,0,0,0,2.21-2.31,7.88,7.88,0,0,0,0-7Z"/><path class="cls-2" d="M102.19,63.2A7.16,7.16,0,0,1,104,68.47v9.6h-2.07V68.71a5.84,5.84,0,0,0-1.29-4.08,4.52,4.52,0,0,0-3.51-1.41,4.73,4.73,0,0,0-3.69,1.53,6.42,6.42,0,0,0-1.38,4.44v8.88H90V68.71a5.84,5.84,0,0,0-1.29-4.08,4.56,4.56,0,0,0-3.54-1.41,4.73,4.73,0,0,0-3.69,1.53,6.42,6.42,0,0,0-1.38,4.44v8.88H78V61.69h2.1v2.82a5.3,5.3,0,0,1,2.22-2.32,6.53,6.53,0,0,1,3.21-.8,6.83,6.83,0,0,1,3.74,1,5.74,5.74,0,0,1,2.32,3,5.56,5.56,0,0,1,2.27-3,6.56,6.56,0,0,1,3.64-1A6.4,6.4,0,0,1,102.19,63.2Z"/><path class="cls-2" d="M113.2,62.54a7.25,7.25,0,0,1,4-1.09,7.85,7.85,0,0,1,4,1A7.2,7.2,0,0,1,124,65.42a10.33,10.33,0,0,1,0,8.87,7.28,7.28,0,0,1-2.79,3,7.77,7.77,0,0,1-4,1,7.21,7.21,0,0,1-4-1.1,6.58,6.58,0,0,1-2.49-2.74V85.81h-2.07V61.69h2.07v3.6A6.65,6.65,0,0,1,113.2,62.54Zm8.91,3.78a5.53,5.53,0,0,0-2.18-2.26,6.23,6.23,0,0,0-3.12-.78,6,6,0,0,0-3.07.81,5.79,5.79,0,0,0-2.21,2.31,7.88,7.88,0,0,0,0,7,5.79,5.79,0,0,0,2.21,2.31,6,6,0,0,0,3.07.81,6.23,6.23,0,0,0,3.12-.79,5.66,5.66,0,0,0,2.18-2.31,7.5,7.5,0,0,0,.79-3.53A7.39,7.39,0,0,0,122.11,66.32Z"/><path class="cls-2" d="M143.09,61.69V78.07H141V75.19a5,5,0,0,1-2.22,2.34,7,7,0,0,1-3.36.81,6.55,6.55,0,0,1-4.8-1.82,7,7,0,0,1-1.86-5.26V61.69h2.07V71a5.71,5.71,0,0,0,1.34,4.08,4.77,4.77,0,0,0,3.64,1.41,4.94,4.94,0,0,0,3.78-1.5A6.21,6.21,0,0,0,141,70.6V61.69Z"/><path class="cls-2" d="M148.93,77a4.75,4.75,0,0,1-2-3.55h2.16a3.13,3.13,0,0,0,1.31,2.24,5.16,5.16,0,0,0,3.1.85,4.09,4.09,0,0,0,2.69-.81,2.51,2.51,0,0,0,1-2,1.87,1.87,0,0,0-.54-1.38,3.82,3.82,0,0,0-1.36-.86,21.64,21.64,0,0,0-2.24-.67,22.73,22.73,0,0,1-3-1,5.05,5.05,0,0,1-1.93-1.43,4.09,4.09,0,0,1-.08-4.75,4.91,4.91,0,0,1,2-1.62,7.17,7.17,0,0,1,3-.6,6.54,6.54,0,0,1,4.26,1.33,4.86,4.86,0,0,1,1.74,3.68H157a3.21,3.21,0,0,0-1.12-2.33,4.23,4.23,0,0,0-2.84-.88,4.16,4.16,0,0,0-2.58.75,2.26,2.26,0,0,0-1,1.86,2.22,2.22,0,0,0,.59,1.58,4,4,0,0,0,1.45,1c.58.23,1.36.48,2.34.76a22.1,22.1,0,0,1,2.82.93,4.89,4.89,0,0,1,1.8,1.32,3.53,3.53,0,0,1,.78,2.31,4,4,0,0,1-.72,2.35,4.91,4.91,0,0,1-2,1.64,7,7,0,0,1-3,.6A7.53,7.53,0,0,1,148.93,77Z"/><path class="cls-2" d="M175.55,76.92a9.86,9.86,0,0,1-3.73-3.82,11.87,11.87,0,0,1,0-11.07,9.9,9.9,0,0,1,3.73-3.81,11,11,0,0,1,10.59,0A9.8,9.8,0,0,1,189.86,62a12,12,0,0,1,0,11.07,9.76,9.76,0,0,1-3.72,3.82,11,11,0,0,1-10.59,0ZM185,75.37A7.68,7.68,0,0,0,188,72.26a10.7,10.7,0,0,0,0-9.37A7.69,7.69,0,0,0,185,59.8a8.71,8.71,0,0,0-8.4,0,7.69,7.69,0,0,0-2.94,3.09,10.7,10.7,0,0,0,0,9.37,7.68,7.68,0,0,0,2.94,3.11,8.71,8.71,0,0,0,8.4,0Z"/><path class="cls-2" d="M207.53,63.2a7.06,7.06,0,0,1,1.86,5.27v9.6h-2.07V68.71A5.71,5.71,0,0,0,206,64.63a4.79,4.79,0,0,0-3.65-1.41,4.94,4.94,0,0,0-3.78,1.5,6.21,6.21,0,0,0-1.41,4.41v8.94h-2.1V61.69h2.1v2.79a5.29,5.29,0,0,1,2.25-2.29,6.89,6.89,0,0,1,3.33-.8A6.62,6.62,0,0,1,207.53,63.2Z"/><path class="cls-2" d="M216.14,55.87v22.2H214V55.87Z"/><path class="cls-2" d="M220.88,58.15a1.51,1.51,0,0,1-.45-1.11,1.47,1.47,0,0,1,.45-1.1,1.57,1.57,0,0,1,2.16,0,1.47,1.47,0,0,1,.45,1.1,1.51,1.51,0,0,1-.45,1.11,1.52,1.52,0,0,1-2.16,0ZM223,61.69V78.07h-2.1V61.69Z"/><path class="cls-2" d="M240.26,63.2a7.06,7.06,0,0,1,1.86,5.27v9.6h-2.07V68.71a5.71,5.71,0,0,0-1.33-4.08,4.79,4.79,0,0,0-3.65-1.41,4.94,4.94,0,0,0-3.78,1.5,6.21,6.21,0,0,0-1.41,4.41v8.94h-2.1V61.69h2.1v2.79a5.29,5.29,0,0,1,2.25-2.29,6.89,6.89,0,0,1,3.33-.8A6.62,6.62,0,0,1,240.26,63.2Z"/><path class="cls-2" d="M261.53,70.69H247.94a6.59,6.59,0,0,0,.9,3.18,5.22,5.22,0,0,0,2.13,2,6.24,6.24,0,0,0,2.88.68,5.8,5.8,0,0,0,3.44-1,4.64,4.64,0,0,0,1.84-2.67h2.22a6.88,6.88,0,0,1-2.56,3.91,7.8,7.8,0,0,1-4.94,1.52,8.26,8.26,0,0,1-4.14-1,7.3,7.3,0,0,1-2.86-2.94,9.17,9.17,0,0,1-1-4.45,9.39,9.39,0,0,1,1-4.47,7.09,7.09,0,0,1,2.85-2.94,8.42,8.42,0,0,1,4.17-1,8,8,0,0,1,4.1,1,7,7,0,0,1,2.7,2.74,7.87,7.87,0,0,1,.94,3.83Q261.59,70.12,261.53,70.69Zm-2.8-4.83a5,5,0,0,0-2.09-2,6.35,6.35,0,0,0-2.88-.66,5.72,5.72,0,0,0-4,1.5A6,6,0,0,0,247.94,69h11.52A5.82,5.82,0,0,0,258.73,65.86Z"/></g></g></svg>